<?xml version="1.0" encoding="UTF-8" standalone="no"?>
<svg
   xmlns:dc="http://purl.org/dc/elements/1.1/"
   xmlns:cc="http://creativecommons.org/ns#"
   xmlns:rdf="http://www.w3.org/1999/02/22-rdf-syntax-ns#"
   xmlns:svg="http://www.w3.org/2000/svg"
   xmlns="http://www.w3.org/2000/svg"
   xmlns:sodipodi="http://sodipodi.sourceforge.net/DTD/sodipodi-0.dtd"
   xmlns:inkscape="http://www.inkscape.org/namespaces/inkscape"
   height="256"
   width="256"
   id="svg879"
   xml:space="preserve"
   enable-background="new 0 0 1000 1000"
   viewBox="0 0 256 256"
   y="0px"
   x="0px"
   version="1.1"
   sodipodi:docname="pam-device.svg"
   inkscape:version="0.92.4 (5da689c313, 2019-01-14)"><sodipodi:namedview
   pagecolor="#ffffff"
   bordercolor="#666666"
   borderopacity="1"
   objecttolerance="10"
   gridtolerance="10"
   guidetolerance="10"
   inkscape:pageopacity="0"
   inkscape:pageshadow="2"
   inkscape:window-width="1920"
   inkscape:window-height="1016"
   id="namedview9"
   showgrid="false"
   inkscape:zoom="2.0742187"
   inkscape:cx="98.109228"
   inkscape:cy="138.6064"
   inkscape:window-x="0"
   inkscape:window-y="27"
   inkscape:window-maximized="1"
   inkscape:current-layer="svg879" /><defs
   id="defs883" />
<metadata
   id="metadata869"> Svg Vector Icons : http://www.onlinewebfonts.com/icon <rdf:RDF><cc:Work
     rdf:about=""><dc:format>image/svg+xml</dc:format><dc:type
       rdf:resource="http://purl.org/dc/dcmitype/StillImage" /><dc:title></dc:title></cc:Work></rdf:RDF></metadata>

<path
   style="opacity:1;fill:#dd4814;fill-opacity:1;fill-rule:nonzero;stroke:none;stroke-width:3.28563571;stroke-linecap:round;stroke-miterlimit:4;stroke-dasharray:none;stroke-dashoffset:0;stroke-opacity:1"
   d="M 20 0 A 20 20 0 0 0 0 20 L 0 236 A 20 20 0 0 0 20 256 L 236 256 A 20 20 0 0 0 256 236 L 256 20 A 20 20 0 0 0 236 0 L 20 0 z "
   id="rect861" /><path
   style="opacity:1;fill:#ffffff;fill-opacity:1;fill-rule:nonzero;stroke:none;stroke-width:3.77952766;stroke-linecap:round;stroke-miterlimit:4;stroke-dasharray:none;stroke-dashoffset:0;stroke-opacity:1"
   d="M 127.99805 28.011719 C 124.5317 28.146198 121.28155 31.181943 118.38477 32.917969 C 106.57497 40.775116 76.84575 48.449219 60.5 48.449219 L 50.060547 48.449219 C 44.155647 49.836975 44.542828 57.490034 44.767578 60.449219 L 45.15625 75.978516 C 46.52521 90.345871 48.302669 107.24489 51.449219 122 C 58.723079 154.449 71.329371 198.30662 113.86914 222.30664 C 115.00803 222.68583 124.62989 227.75395 127.99805 227.97852 L 127.99805 210.62695 C 125.21408 210.44094 117.26343 206.25281 116.32227 205.93945 C 81.165396 186.10472 70.745825 149.85837 64.734375 123.04102 C 62.133915 110.84671 60.664563 96.881664 59.533203 85.007812 L 59.212891 72.171875 C 59.027151 69.726268 58.705858 63.402765 63.585938 62.255859 L 72.214844 62.255859 C 85.723724 62.255859 110.29256 55.913432 120.05273 49.419922 C 122.44676 47.985188 125.13327 45.476372 127.99805 45.365234 L 127.99805 28.011719 z M 128 28.011719 L 128 45.365234 C 130.86478 45.476372 133.55128 47.985188 135.94531 49.419922 C 145.70548 55.913432 170.27432 62.255859 183.7832 62.255859 L 192.41211 62.255859 C 197.29219 63.402765 196.9709 69.726268 196.78516 72.171875 L 196.46484 85.007812 C 195.33348 96.881664 193.86413 110.84671 191.26367 123.04102 C 185.25222 149.85837 174.83265 186.10472 139.67578 205.93945 C 138.73462 206.25281 130.78397 210.44094 128 210.62695 L 128 227.97852 C 131.36816 227.75395 140.99002 222.68583 142.12891 222.30664 C 184.66868 198.30662 197.27497 154.449 204.54883 122 C 207.69538 107.24489 209.47284 90.345871 210.8418 75.978516 L 211.23047 60.449219 C 211.45522 57.490034 211.8424 49.836975 205.9375 48.449219 L 195.49805 48.449219 C 179.1523 48.449219 149.42308 40.775116 137.61328 32.917969 C 134.7165 31.181943 131.46635 28.146198 128 28.011719 z M 127.99805 78.539062 C 119.96623 78.62545 111.5208 81.613459 106.71289 92.513672 C 105.90235 93.981037 104.92383 97.218328 104.92383 98.365234 L 104.92383 113.79883 C 102.32337 114.11928 97.105469 117.86339 97.105469 120.78125 L 97.105469 155.55859 L 96.789062 155.55859 C 97.128253 157.04694 100.20698 162.20508 103.13477 162.20508 L 127.99805 162.20508 L 127.99805 147.59766 L 120.54297 147.59766 L 120.22266 146.46875 C 120.22266 145.65917 123.63281 139.80623 123.63281 139.14844 C 123.63281 137.51242 121.0332 135.55569 121.0332 133.12695 C 121.0332 129.91953 123.56246 126.57241 127.99805 126.47461 L 127.99805 113.93359 L 116.15234 113.93359 L 116.15234 100.28906 C 116.30259 94.503107 122.36163 89.994666 127.99805 89.892578 L 127.99805 78.539062 z M 128 78.539062 L 128 89.892578 C 133.63642 89.994666 139.69545 94.503106 139.8457 100.28906 L 139.8457 113.93359 L 128 113.93359 L 128 126.47461 C 132.43559 126.57237 134.96484 129.91953 134.96484 133.12695 C 134.96484 135.55569 132.36523 137.51242 132.36523 139.14844 C 132.36523 139.80623 135.77539 145.65917 135.77539 146.46875 L 135.45508 147.59766 L 128 147.59766 L 128 162.20508 L 152.86328 162.20508 C 155.79107 162.20508 158.86979 157.04694 159.20898 155.55859 L 158.89258 155.55859 L 158.89258 120.78125 C 158.89258 117.86339 153.67468 114.11928 151.07422 113.79883 L 151.07422 98.365234 C 151.07422 97.218328 150.0957 93.981037 149.28516 92.513672 C 144.47725 81.613459 136.03182 78.62545 128 78.539062 z "
   id="rect863" /><path
   style="fill:#000000;fill-opacity:1;stroke-width:0.16876177"
   d="M 128 126.47461 C 123.56444 126.57237 121.03516 129.91953 121.03516 133.12695 C 121.03516 135.55569 123.63477 137.51242 123.63477 139.14844 C 123.63477 139.80623 120.22461 145.65917 120.22461 146.46875 L 120.54492 147.59766 L 128 147.59766 L 135.45508 147.59766 L 135.77539 146.46875 C 135.77539 145.65917 132.36523 139.80623 132.36523 139.14844 C 132.36523 137.51242 134.96484 135.55569 134.96484 133.12695 C 134.96484 129.91953 132.43556 126.57237 128 126.47461 z "
   id="path871" /><path
   style="fill:#000000;fill-opacity:1;stroke-width:0.16876177"
   d="M 128 45.365234 C 125.1353 45.476382 122.44873 47.985188 120.05469 49.419922 C 110.29453 55.913432 85.725677 62.255859 72.216797 62.255859 L 63.587891 62.255859 C 58.707801 63.402765 59.029094 69.726268 59.214844 72.171875 L 59.535156 85.007812 C 60.666526 96.881661 62.135868 110.84671 64.736328 123.04102 C 70.747778 149.85837 81.167359 186.10472 116.32422 205.93945 C 117.26547 206.25283 125.21665 210.44154 128 210.62695 C 130.78335 210.44154 138.73453 206.25283 139.67578 205.93945 C 174.83264 186.10472 185.25222 149.85837 191.26367 123.04102 C 193.86413 110.84671 195.33347 96.881662 196.46484 85.007812 L 196.78516 72.171875 C 196.97091 69.726268 197.2922 63.402765 192.41211 62.255859 L 183.7832 62.255859 C 170.27432 62.255859 145.70547 55.913432 135.94531 49.419922 C 133.55127 47.985188 130.8647 45.476382 128 45.365234 z M 128 78.539062 C 136.0318 78.625443 144.47742 81.613459 149.28516 92.513672 C 150.09569 93.981037 151.07422 97.218328 151.07422 98.365234 L 151.07422 113.79883 C 153.67468 114.11928 158.89258 117.86339 158.89258 120.78125 L 158.89258 155.55859 L 159.20898 155.55859 C 158.86978 157.04694 155.79106 162.20508 152.86328 162.20508 L 128 162.20508 L 103.13672 162.20508 C 100.20894 162.20508 97.130216 157.04694 96.791016 155.55859 L 97.107422 155.55859 L 97.107422 120.78125 C 97.107422 117.86339 102.32532 114.11928 104.92578 113.79883 L 104.92578 98.365234 C 104.92578 97.218328 105.90431 93.981037 106.71484 92.513672 C 111.52258 81.613459 119.9682 78.625443 128 78.539062 z M 128 89.892578 C 122.36362 89.994668 116.30454 94.503101 116.1543 100.28906 L 116.1543 113.93359 L 128 113.93359 L 139.8457 113.93359 L 139.8457 100.28906 C 139.69546 94.503101 133.63638 89.994668 128 89.892578 z "
   id="path873" /><path
   style="fill:#000000;fill-opacity:1;stroke-width:0.2450421"
   d="M 128 8.015625 C 123.84033 8.1768443 119.94107 11.819059 116.46484 13.902344 C 102.29308 23.330921 66.618806 32.539062 47.003906 32.539062 L 34.474609 32.539062 C 27.388729 34.204369 27.8553 43.38843 28.125 46.939453 L 28.589844 65.576172 C 30.232594 82.816998 32.366718 103.09268 36.142578 120.79883 C 44.871218 159.73762 59.999115 212.36795 111.04688 241.16797 C 112.41354 241.62299 123.9584 247.70522 128 247.97461 C 132.0416 247.70522 143.58645 241.62299 144.95312 241.16797 C 196.00089 212.36795 211.12878 159.73762 219.85742 120.79883 C 223.63328 103.09268 225.76741 82.816998 227.41016 65.576172 L 227.875 46.939453 C 228.1447 43.38843 228.61127 34.204369 221.52539 32.539062 L 208.99609 32.539062 C 189.38119 32.539062 153.70692 23.330921 139.53516 13.902344 C 136.05893 11.819059 132.15967 8.1768443 128 8.015625 z M 128 28.011719 C 131.46629 28.146212 134.7165 31.181943 137.61328 32.917969 C 149.42308 40.775116 179.15231 48.449219 195.49805 48.449219 L 205.9375 48.449219 C 211.8424 49.836975 211.45523 57.490034 211.23047 60.449219 L 210.8418 75.978516 C 209.47285 90.345871 207.69539 107.24489 204.54883 122 C 197.27497 154.449 184.66872 198.30662 142.12891 222.30664 C 140.99002 222.68583 131.36808 227.75392 128 227.97852 C 124.63192 227.75392 115.00998 222.68583 113.87109 222.30664 C 71.331284 198.30662 58.725032 154.449 51.451172 122 C 48.304612 107.24489 46.527153 90.345871 45.158203 75.978516 L 44.769531 60.449219 C 44.544771 57.490034 44.1576 49.836975 50.0625 48.449219 L 60.501953 48.449219 C 76.847693 48.449219 106.57692 40.775116 118.38672 32.917969 C 121.2835 31.181943 124.53371 28.146212 128 28.011719 z "
   id="path5212" /></svg>