<?xml version="1.0" encoding="UTF-8" standalone="no"?>
<svg
   xmlns:dc="http://purl.org/dc/elements/1.1/"
   xmlns:cc="http://creativecommons.org/ns#"
   xmlns:rdf="http://www.w3.org/1999/02/22-rdf-syntax-ns#"
   xmlns:svg="http://www.w3.org/2000/svg"
   xmlns="http://www.w3.org/2000/svg"
   xmlns:sodipodi="http://sodipodi.sourceforge.net/DTD/sodipodi-0.dtd"
   xmlns:inkscape="http://www.inkscape.org/namespaces/inkscape"
   height="256"
   width="256"
   id="svg879"
   xml:space="preserve"
   enable-background="new 0 0 1000 1000"
   viewBox="0 0 256 256"
   y="0px"
   x="0px"
   version="1.1"
   sodipodi:docname="pam-device.svg"
   inkscape:version="0.92.4 (5da689c313, 2019-01-14)"><sodipodi:namedview
   pagecolor="#ffffff"
   bordercolor="#666666"
   borderopacity="1"
   objecttolerance="10"
   gridtolerance="10"
   guidetolerance="10"
   inkscape:pageopacity="0"
   inkscape:pageshadow="2"
   inkscape:window-width="1920"
   inkscape:window-height="1016"
   id="namedview9"
   showgrid="false"
   inkscape:zoom="0.921875"
   inkscape:cx="-4.8813559"
   inkscape:cy="128"
   inkscape:window-x="0"
   inkscape:window-y="27"
   inkscape:window-maximized="1"
   inkscape:current-layer="svg879" /><defs
   id="defs883" />
<metadata
   id="metadata869"> Svg Vector Icons : http://www.onlinewebfonts.com/icon <rdf:RDF><cc:Work
     rdf:about=""><dc:format>image/svg+xml</dc:format><dc:type
       rdf:resource="http://purl.org/dc/dcmitype/StillImage" /><dc:title /></cc:Work></rdf:RDF></metadata>

<g
   transform="matrix(0.16886101,0,0,0.1686626,43.577384,43.668645)"
   id="g5220"
   style="fill:#1a1a1a"><path
     id="path871"
     d="m 541.2,530.4 c 0,-19.3 -15.4,-39.5 -42.4,-39.5 -24.1,0 -39.5,15.4 -39.5,39.5 0,6.7 0,15.4 4.8,22.2 1.9,4.8 11.6,6.7 11.6,13.5 0,4.8 -20.2,39.5 -20.2,43.4 0,6.7 1.9,4.8 1.9,6.7 h 86.7 l 1.9,-6.7 c 0,-4.8 -20.2,-39.5 -20.2,-43.4 0,-9.7 15.4,-21.3 15.4,-35.7 z"
     style="fill:#1a1a1a;fill-opacity:1" /><path
     d="m 498.80078,10 c -10.6,0 -80.00039,41.399219 -95.40039,48.199219 -27,10.6 -52.99961,19.3 -77.09961,26 -15.4,3.9 -30.80078,8.701562 -46.30078,10.601562 -35.7,6.699999 -73.20078,11.598439 -110.80078,15.398439 h -53 c -13.5,0 -24.099611,19.3 -24.099611,26 l 2,111.80078 c 9.600001,82.9 15.401171,170.60039 35.701171,253.40039 22.2,89.6 51.1,185.99922 106,272.69922 17.3,30.8 44.3,58.79961 66.5,89.59961 20.2,30.9 157,126.30078 196.5,126.30078 15.4,0 64.59883,-26.00039 70.29883,-27.90039 208.2,-117.6 269.9,-332.5 305.5,-491.5 15.4,-72.3 24.10078,-155.1 30.80078,-225.5 L 907.30078,169 c 1.1,-14.5 2.99961,-52.00078 -25.90039,-58.80078 H 830.30078 C 750.30078,110.19922 604.8,72.599609 547,34.099609 532.5,25.399609 516.20078,10 498.80078,10 Z m -1,196.69922 c 48.2,0 99.29922,17.30039 128.19922,82.90039 4.8,8.7 10.59961,27.90117 10.59961,34.70117 v 91.5 c 15.4,1.9 46.30078,24.09844 46.30078,41.39844 v 206.20117 h 1.875 c -2.00873,8.82443 -20.23775,39.40039 -37.57617,39.40039 H 350.40039 c -18.3,-1.9 -36.60117,-22.20156 -35.70117,-36.60156 V 458.09961 c 4.8,-26 22.20078,-36.60039 46.30078,-41.40039 v -94.39844 c 17.3,-84.8 77.10078,-115.60156 136.80078,-115.60156 z m -136.80078,210 69.40039,-0.0996 h 139.69922 v -80.9004 C 569.19961,300.99922 532.50078,274 498.80078,274 c -30.8,0 -59.70039,15.39922 -68.40039,61.69922 v 18.53906 l -69.375,0.0996 z"
     id="path873"
     style="fill:#1a1a1a;fill-opacity:1" /><path
     style="fill:#1a1a1a;fill-opacity:1;stroke-width:1.45200002"
     d="m 498.27988,-211.48 c -15.3912,0 -116.16056,60.11256 -138.52136,69.98616 -39.204,15.3912 -76.95544,28.02275 -111.94864,37.75115 -22.3608,5.662801 -44.72225,12.635547 -67.22825,15.394347 -51.8364,9.7284 -106.287529,16.839086 -160.882733,22.356686 h -76.955529 c -19.602,0 -34.993106,28.025052 -34.993106,37.753452 l 2.904474,162.333725 c 13.939201,120.3708 22.36061,247.71131 51.83621,367.93691 32.2343995,130.0992 74.198614,270.07227 153.913414,395.96067 25.1196,44.7216 64.32219,85.37704 96.55659,130.0986 29.3304,44.8668 227.96493,183.3883 285.31893,183.3883 22.3608,0 93.79845,-37.7525 102.07485,-40.5113 302.3064,-170.7552 391.89433,-482.79101 443.58557,-713.65901 22.3608,-104.97966 34.9943,-225.20478 44.7227,-327.42558 l 2.758,-110.495142 c 1.5972,-21.054 4.3559,-75.507025 -37.6069,-85.380625 h -74.19527 c -116.16,0 -327.42712,-54.593263 -411.35272,-110.495263 -21.054,-12.6324 -44.72143,-34.99308 -69.98623,-34.99308 z m 0.27887,118.58 c 21.054,0 40.77606,18.633516 58.32106,29.160516 69.938,46.585 245.99394,92.080516 342.79394,92.080516 h 61.83053 c 34.969,8.228 32.67047,53.603968 31.33947,71.148968 l -2.29947,92.08052 c -8.107,85.184 -18.63494,185.372 -37.26894,272.85501 -43.076,192.39 -117.733,452.419 -369.655,594.71507 -6.897,2.299 -66.42759,33.7594 -85.06159,33.7594 -47.795,0 -213.323,-115.43495 -237.765,-152.82395 -26.862,-37.268 -59.532,-71.14752 -80.465,-108.41552 C 113.89975,726.75353 78.930755,610.11047 52.068757,501.69447 27.505757,401.50647 20.486341,295.389 8.8703401,195.08 l -2.42,-135.278968 c 0,-8.107 12.8255289,-31.46 29.1605289,-31.46 h 64.130005 c 45.495996,-4.598 90.871936,-10.525064 134.068936,-18.632064 18.755,-2.299 37.38994,-8.108936 56.02394,-12.827936 29.161,-8.107 60.62053,-18.634 93.29053,-31.46 C 401.75828,-42.806968 485.73275,-92.9 498.55875,-92.9 Z"
     id="path5212" /></g></svg>